<?xml version="1.0" encoding="UTF-8"?>
<svg width="1600px" height="1600px" viewBox="0 0 1600 1600" version="1.1" xmlns="http://www.w3.org/2000/svg" xmlns:xlink="http://www.w3.org/1999/xlink">
    <!-- Generator: Sketch 50.2 (55047) - http://www.bohemiancoding.com/sketch -->
    <title>Codesmith-icon-blue-black (white background) Copy</title>
    <desc>Created with Sketch.</desc>
    <defs></defs>
    <g id="Codesmith-icon-blue-black-(white-background)-Copy" stroke="none" stroke-width="1" fill="none" fill-rule="evenodd">
        <g id="logo" transform="translate(98.000000, 5.000000)" fill="#03A3EA">
            <polyline id="Fill-7" points="701.977291 0 1404 396.041628 1404 554.658025 1268.10999 554.658025 1268.10999 475.372525 702 156.006081 419.069906 315.643906 135.890014 475.349827 135.890014 1114.69557 702 1434.03932 1268.10999 1114.69557 1268.10999 1035.38737 1404 1035.38737 1404 1194.02647 702 1590 0 1194.02647 0 396.01893 352.283052 197.339862 701.977291 0"></polyline>
            <polygon id="Fill-8" points="703 295 273 537.651864 273 618.157539 926.239548 985.868965 703 1105.02735 273 867.096426 273 1018.34814 703 1261 1132.9319 1018.03038 1133 946.285684 477.127428 575.600973 703.022698 450.972651 1133 688.109184 1133 537.651864"></polygon>
        </g>
    </g>
</svg>